<?xml version="1.0" standalone="no"?>
<!DOCTYPE svg PUBLIC "-//W3C//DTD SVG 20010904//EN"
 "http://www.w3.org/TR/2001/REC-SVG-20010904/DTD/svg10.dtd">
<svg version="1.0" xmlns="http://www.w3.org/2000/svg"
aria-hidden="true" role="img" class="iconify iconify--logos"
 width="32.000000pt" height="32.000000pt" viewBox="0 0 1024.000000 1024.000000"
 preserveAspectRatio="xMidYMid meet">

<g transform="translate(0.000000,1024.000000) scale(0.100000,-0.100000)"
fill="#000" stroke="red">
<path d="M4970 7909 c-630 -39 -1209 -379 -1553 -909 -299 -461 -391 -1042
-252 -1592 201 -790 888 -1384 1710 -1478 207 -23 503 -6 690 41 356 89 658
253 918 499 398 377 617 892 617 1450 0 674 -329 1287 -895 1665 -353 236
-795 352 -1235 324z m355 -1471 c26 -62 50 -119 52 -125 4 -10 -54 -13 -271
-13 l-276 0 0 -314 c0 -302 -1 -314 -19 -319 -11 -3 -22 -2 -25 1 -3 3 -6 61
-6 129 0 110 -2 125 -20 143 -38 38 -118 13 -121 -37 -3 -37 -4 -43 -11 -43
-5 0 -21 0 -38 0 l-30 0 0 220 0 220 -276 0 c-152 0 -274 4 -272 8 2 5 23 61
48 125 l45 117 586 0 587 0 47 -112z m1045 106 c0 -3 -49 -121 -109 -263 -60
-141 -157 -368 -216 -506 -58 -137 -147 -348 -197 -467 l-91 -218 -128 0 c-71
0 -132 0 -135 -1 -6 0 -424 963 -440 1013 -5 17 4 18 134 18 100 0 142 -4 149
-12 5 -7 72 -165 148 -351 76 -186 141 -334 145 -330 3 5 16 33 28 63 73 186
425 1030 438 1052 6 9 274 11 274 2z m-1862 -965 c2 -411 0 -468 -13 -479 -11
-9 -19 -10 -27 -2 -12 12 -12 36 -10 565 l2 388 23 -3 22 -3 3 -466z m226 314
c2 -10 4 -127 2 -261 -2 -178 -6 -246 -15 -255 -10 -9 -15 -8 -27 7 -11 16
-14 67 -14 257 0 131 3 244 6 253 8 21 41 20 48 -1z m-343 -15 c5 -14 9 -596
4 -615 -4 -18 -11 -23 -28 -21 l-22 3 -3 305 c-1 168 0 310 3 317 3 11 43 19
46 11z m227 -357 c-3 -268 -4 -276 -23 -276 -19 0 -20 8 -23 269 -2 272 1 302
34 289 12 -4 14 -48 12 -282z m-343 34 c0 -163 -1 -170 -20 -170 -19 0 -20 8
-23 160 -1 87 0 165 3 173 3 7 13 12 22 10 16 -3 18 -19 18 -173z m-116 51
c19 -23 10 -90 -13 -94 -10 -2 -22 2 -27 10 -13 19 -11 72 3 86 16 16 23 15
37 -2z m685 -2 c16 -42 3 -94 -25 -94 -16 0 -19 8 -19 48 0 27 3 52 7 55 11
12 31 7 37 -9z m-810 0 c11 -4 16 -19 16 -46 0 -35 -2 -39 -22 -36 -17 2 -24
11 -26 31 -3 28 3 57 12 57 2 0 11 -3 20 -6z m924 -42 c3 -40 2 -43 -20 -40
-17 2 -24 11 -26 31 -5 39 5 59 25 55 13 -2 19 -15 21 -46z"/>
</g>
</svg>
